<svg width="3016" height="403" viewBox="0 0 3016 403" fill="none" xmlns="http://www.w3.org/2000/svg">
<path d="M66.6654 0C29.8499 0.0152587 0 29.8652 0 66.6654C0 103.496 29.8499 133.346 66.6654 133.331C103.481 133.346 133.331 103.496 133.331 66.6654C133.335 29.8499 103.485 0.0152587 66.6654 0Z" fill="#3D3B49"/>
<path d="M333.335 266.665C304.602 266.665 278.598 255.015 259.765 236.194L257.258 233.687C269.492 212.905 269.492 187.11 257.258 166.305L259.765 163.799C278.598 144.985 304.625 133.331 333.335 133.331C370.15 133.335 400 103.485 400 66.6654C400 29.8461 370.15 0 333.335 0C296.519 0 266.665 29.8499 266.665 66.6654C266.665 95.39 255.015 121.398 236.194 140.228L233.687 142.734C208.141 127.693 174.793 130.92 152.854 152.854C130.916 174.793 127.7 208.129 142.738 233.684L140.235 236.19C121.406 255.008 95.3785 266.658 66.6692 266.658C29.8499 266.665 0 296.519 0 333.335C0 370.15 29.8499 400 66.6654 400C103.481 400 133.331 370.15 133.331 333.335C133.331 304.602 144.985 278.598 163.799 259.765L166.305 257.258C187.099 269.492 212.897 269.492 233.687 257.258L236.194 259.765C255.015 278.598 266.665 304.625 266.665 333.335C266.665 370.15 296.519 400 333.335 400C370.15 400 400 370.15 400 333.335C400 296.519 370.15 266.665 333.335 266.665Z" fill="#3D3B49"/>
<path d="M655.852 356.801C618.057 356.801 587.583 348.969 564.431 333.306C541.477 317.643 530 295.728 530 267.561V107.245C530 73.5495 539.993 47.7516 559.979 29.8509C580.163 11.9503 612.912 3 658.227 3C682.962 3 704.926 6.02731 724.121 12.0819C743.513 18.1366 758.75 27.2185 769.831 39.3277C780.912 51.3054 786.453 66.4419 786.453 84.7374V144.757H682.566V93.4245C682.566 83.0263 680.587 76.0503 676.629 72.4965C672.672 68.8111 666.538 66.9684 658.227 66.9684C648.53 66.9684 642 69.3376 638.636 74.076C635.272 78.6828 633.59 84.869 633.59 92.6348V266.574C633.59 276.182 635.668 282.961 639.824 286.909C644.177 290.858 650.311 292.832 658.227 292.832C667.131 292.832 673.364 290.397 676.926 285.527C680.686 280.657 682.566 274.339 682.566 266.574V203.987H787.64V269.732C787.64 300.269 776.064 322.447 752.912 336.268C729.76 349.956 697.407 356.801 655.852 356.801Z" fill="#3D3B49"/>
<path d="M812.276 403V358.183H863.33C871.047 358.183 874.906 356.406 874.906 352.852C874.906 351.009 874.609 349.101 874.015 347.126L804.262 57.4916H906.072L935.754 275.458L970.779 57.4916H1073.18L990.666 369.041C987.697 380.229 981.959 388.653 973.45 394.313C965.139 400.104 951.386 403 932.192 403H812.276Z" fill="#3D3B49"/>
<path d="M1278.88 356.801C1261.47 356.801 1247.32 353.971 1236.43 348.311C1225.55 342.52 1216.84 333.767 1210.31 322.052V353.642H1102.27V6.15893H1210.31V89.081C1216.84 78.1563 1225.85 69.6667 1237.32 63.612C1249 57.4258 1265.62 54.3327 1287.19 54.3327C1316.28 54.3327 1336.76 61.3745 1348.63 75.458C1360.7 89.5416 1366.74 107.969 1366.74 130.739V276.445C1366.74 291.582 1363.57 305.271 1357.24 317.511C1351.1 329.621 1341.51 339.229 1328.45 346.337C1315.59 353.313 1299.06 356.801 1278.88 356.801ZM1234.95 301.717C1246.23 301.717 1253.06 298.031 1255.43 290.66C1257.8 283.29 1258.99 274.208 1258.99 263.415V147.719C1258.99 136.794 1257.8 127.712 1255.43 120.473C1253.06 113.102 1246.33 109.417 1235.25 109.417C1223.77 109.417 1216.74 113.168 1214.17 120.67C1211.6 128.041 1210.31 137.057 1210.31 147.719V263.415C1210.31 274.076 1211.6 283.158 1214.17 290.66C1216.74 298.031 1223.67 301.717 1234.95 301.717Z" fill="#3D3B49"/>
<path d="M1530.88 356.801C1499.22 356.801 1473.99 352.852 1455.19 344.955C1436.39 337.057 1422.94 325.672 1414.82 310.799C1406.71 295.925 1402.65 278.025 1402.65 257.097V138.044C1402.65 110.535 1414.53 89.7391 1438.27 75.6555C1462.02 61.4403 1494.67 54.3327 1536.22 54.3327C1621.71 54.3327 1664.45 82.2366 1664.45 138.044V159.565C1664.45 185.626 1664.05 203.132 1663.26 212.082H1508.91V269.338C1508.91 274.603 1509.41 279.802 1510.4 284.935C1511.39 289.937 1513.56 294.083 1516.93 297.373C1520.49 300.664 1526.13 302.309 1533.85 302.309C1544.93 302.309 1551.85 299.15 1554.62 292.832C1557.4 286.383 1558.78 278.025 1558.78 267.758V239.328H1664.45V256.11C1664.45 278.222 1660.29 296.781 1651.98 311.786C1643.87 326.659 1630.02 337.913 1610.43 345.547C1591.03 353.049 1564.52 356.801 1530.88 356.801ZM1508.32 176.939H1558.78V137.057C1558.78 126.396 1556.8 118.762 1552.84 114.155C1548.89 109.417 1542.95 107.047 1535.03 107.047C1526.53 107.047 1519.9 109.285 1515.15 113.76C1510.6 118.235 1508.32 126.001 1508.32 137.057V176.939Z" fill="#3D3B49"/>
<path d="M1703.04 353.642V57.4916H1811.08V90.463C1816.22 79.0119 1825.33 70.0615 1838.39 63.612C1851.45 57.1626 1867.87 53.9378 1887.66 53.9378V112.97C1878.95 112.97 1868.56 113.629 1856.49 114.945C1844.42 116.129 1833.83 117.84 1824.73 120.078C1815.63 122.184 1811.08 124.553 1811.08 127.186V353.642H1703.04Z" fill="#3D3B49"/>
<path d="M1960.38 353.642V72.8914H1898.34V6.15893H2126.9V72.8914H2064.86V353.642H1960.38Z" fill="#3D3B49"/>
<path d="M2278.87 356.801C2247.21 356.801 2221.98 352.852 2203.18 344.955C2184.38 337.057 2170.92 325.672 2162.81 310.799C2154.7 295.925 2150.64 278.025 2150.64 257.097V138.044C2150.64 110.535 2162.51 89.7391 2186.26 75.6555C2210 61.4403 2242.66 54.3327 2284.21 54.3327C2369.69 54.3327 2412.44 82.2366 2412.44 138.044V159.565C2412.44 185.626 2412.04 203.132 2411.25 212.082H2256.9V269.338C2256.9 274.603 2257.4 279.802 2258.39 284.935C2259.38 289.937 2261.55 294.083 2264.92 297.373C2268.48 300.664 2274.12 302.309 2281.84 302.309C2292.92 302.309 2299.84 299.15 2302.61 292.832C2305.38 286.383 2306.77 278.025 2306.77 267.758V239.328H2412.44V256.11C2412.44 278.222 2408.28 296.781 2399.97 311.786C2391.86 326.659 2378.01 337.913 2358.42 345.547C2339.02 353.049 2312.51 356.801 2278.87 356.801ZM2256.31 176.939H2306.77V137.057C2306.77 126.396 2304.79 118.762 2300.83 114.155C2296.87 109.417 2290.94 107.047 2283.02 107.047C2274.51 107.047 2267.88 109.285 2263.14 113.76C2258.58 118.235 2256.31 126.001 2256.31 137.057V176.939Z" fill="#3D3B49"/>
<path d="M2584.89 356.801C2535.02 356.801 2499.6 348.311 2478.63 331.332C2457.85 314.352 2447.46 289.41 2447.46 256.504V165.29C2447.46 140.545 2451.42 119.946 2459.33 103.494C2467.25 87.0408 2481.1 74.7341 2500.89 66.5735C2520.68 58.413 2548.18 54.3327 2583.41 54.3327C2607.94 54.3327 2629.91 57.2284 2649.3 63.0197C2668.89 68.8111 2684.32 77.3008 2695.6 88.4887C2706.88 99.6765 2712.52 113.365 2712.52 129.555V174.767H2604.18V133.306C2604.18 126.462 2602.7 120.736 2599.73 116.129C2596.76 111.391 2590.33 109.022 2580.44 109.022C2563.02 109.022 2554.32 117.248 2554.32 133.701V277.235C2554.32 283.29 2556.3 288.884 2560.25 294.017C2564.21 299.018 2570.74 301.519 2579.84 301.519C2589.14 301.519 2595.57 299.084 2599.14 294.214C2602.9 289.213 2604.78 283.421 2604.78 276.84V227.087H2712.52V278.814C2712.52 295.136 2706.98 309.153 2695.9 320.868C2685.02 332.45 2669.98 341.335 2650.78 347.521C2631.59 353.707 2609.62 356.801 2584.89 356.801Z" fill="#3D3B49"/>
<path d="M2749.62 353.642V6.15893H2858.85V86.9092C2864.59 75.8529 2873.4 67.6923 2885.27 62.4274C2897.14 57.0309 2911 54.3327 2926.83 54.3327C2957.7 54.3327 2980.16 60.7822 2994.21 73.6811C3008.25 86.5801 3015.28 103.888 3015.28 125.606V353.642H2907.83V130.147C2907.83 123.698 2905.75 118.433 2901.6 114.352C2897.64 110.272 2891.31 108.232 2882.6 108.232C2875.28 108.232 2869.44 110.338 2865.09 114.55C2860.93 118.762 2858.85 123.763 2858.85 129.555V353.642H2749.62Z" fill="#3D3B49"/>
</svg>
