<svg width="2636" height="547" viewBox="0 0 2636 547" fill="none" xmlns="http://www.w3.org/2000/svg">
<path d="M273.068 91.0208C172.526 91.0208 91.0208 172.531 91.0208 273.068C91.0208 373.604 172.526 455.115 273.068 455.115C373.604 455.115 455.115 373.604 455.115 273.068C455.115 172.531 373.604 91.0208 273.068 91.0208ZM273.068 409.599C197.661 409.599 136.531 348.469 136.531 273.068C136.531 197.646 197.661 136.531 273.068 136.531C348.469 136.531 409.599 197.646 409.599 273.068C409.599 348.469 348.469 409.599 273.068 409.599Z" fill="#3D3B49"/>
<path d="M364.089 273.068C364.089 323.333 323.333 364.089 273.068 364.089C222.797 364.089 182.047 323.333 182.047 273.068C182.047 222.797 222.797 182.047 273.068 182.047C323.333 182.047 364.089 222.797 364.089 273.068Z" fill="#3D3B49"/>
<path d="M546.135 0H273.068C178.047 0 94.4323 48.599 45.5208 122.224V0H0V273.068C0 368.089 48.599 451.714 122.245 500.62H0V546.135H273.068C368.089 546.135 451.714 497.536 500.62 423.891V546.135H546.135V273.068C546.135 178.047 497.536 94.4271 423.891 45.5156H546.135V0ZM500.62 273.068C500.62 398.734 398.734 500.62 273.068 500.62C147.385 500.62 45.5156 398.734 45.5156 273.068H45.526V272.844C45.6406 147.266 147.469 45.5156 273.068 45.5156C398.734 45.5156 500.62 147.375 500.62 273.068Z" fill="#3D3B49"/>
<path d="M810.202 2.08342C821.212 2.08342 831.578 3.64599 841.3 6.77112C851.023 9.89625 859.531 14.2367 866.823 19.7925C874.115 25.3483 879.87 32.0615 884.088 39.9322C888.305 47.6872 890.414 56.2523 890.414 65.6277V203.828C890.414 213.203 888.305 221.826 884.088 229.697C879.87 237.452 874.115 244.107 866.823 249.663C859.531 255.219 851.023 259.559 841.3 262.685C831.578 265.81 821.212 267.372 810.202 267.372C804.054 267.372 797.763 267.025 791.328 266.331C784.894 265.52 778.639 264.536 772.562 263.379C766.557 262.106 760.909 260.659 755.619 259.039C750.329 257.418 745.789 255.682 742 253.83V15.6257C745.789 13.7737 750.329 12.0375 755.619 10.4171C760.909 8.79666 766.557 7.40772 772.562 6.25026C778.639 4.97706 784.894 3.99322 791.328 3.29875C797.763 2.48853 804.054 2.08342 810.202 2.08342ZM810.631 41.3212C804.125 41.3212 798.478 41.6684 793.688 42.3629C788.898 42.9416 784.787 43.7518 781.356 44.7935C777.924 45.7195 775.064 46.7612 772.777 47.9187C770.56 48.9604 768.737 49.8863 767.308 50.6966V218.759C768.737 219.685 770.56 220.669 772.777 221.711C775.064 222.752 777.924 223.794 781.356 224.836C784.787 225.762 788.898 226.572 793.688 227.266C798.478 227.845 804.125 228.135 810.631 228.135C818.638 228.135 825.823 227.093 832.185 225.009C838.62 222.926 844.017 220.148 848.378 216.676C852.81 213.203 856.206 209.21 858.565 204.696C860.925 200.066 862.104 195.263 862.104 190.286V79.17C862.104 74.1929 860.925 69.4473 858.565 64.9333C856.206 60.3034 852.81 56.2523 848.378 52.78C844.017 49.3076 838.62 46.5297 832.185 44.4463C825.823 42.3629 818.638 41.3212 810.631 41.3212Z" fill="#3D3B49"/>
<path d="M950.681 266.678H923.443V68.7529H950.681V266.678ZM937.169 0C942.46 0 946.642 1.44682 949.716 4.34046C952.79 7.11835 954.327 11.5746 954.327 17.7091V26.39C954.327 31.9458 952.79 35.939 949.716 38.3697C946.642 40.8003 942.46 42.0156 937.169 42.0156C932.093 42.0156 927.983 40.8003 924.837 38.3697C921.763 35.939 920.226 31.9458 920.226 26.39V17.7091C920.226 11.5746 921.763 7.11835 924.837 4.34046C927.983 1.44682 932.093 0 937.169 0Z" fill="#3D3B49"/>
<path d="M1058.35 68.7529C1064.42 68.7529 1070.61 69.158 1076.9 69.9682C1083.19 70.6627 1089.23 71.6465 1095.02 72.9197C1100.88 74.0772 1106.35 75.4661 1111.43 77.0865C1116.57 78.707 1121.04 80.4432 1124.83 82.2951H1126.55V275.359C1126.55 283.577 1125.48 291.216 1123.33 298.276C1121.19 305.337 1118.08 311.413 1114 316.506C1109.93 321.715 1104.92 325.766 1098.99 328.66C1093.05 331.553 1086.3 333 1078.72 333V302.79C1081.58 302.79 1084.23 302.327 1086.66 301.401C1089.09 300.475 1091.2 299.029 1092.98 297.061C1094.84 295.209 1096.27 292.836 1097.27 289.943C1098.34 287.165 1098.88 283.924 1098.88 280.22V253.483C1092.38 257.534 1085.62 260.775 1078.61 263.205C1071.68 265.52 1064.92 266.678 1058.35 266.678C1047.34 266.678 1037.51 265.462 1028.86 263.032C1020.21 260.485 1012.88 256.608 1006.87 251.399C1000.87 246.191 996.292 239.593 993.146 231.607C990.001 223.62 988.428 214.129 988.428 203.133V132.297C988.428 121.301 990.001 111.81 993.146 103.824C996.292 95.8373 1000.87 89.2398 1006.87 84.0313C1012.88 78.8227 1020.21 75.0031 1028.86 72.5725C1037.51 70.0261 1047.34 68.7529 1058.35 68.7529ZM1066.07 231.954C1070 231.954 1073.61 231.549 1076.9 230.739C1080.19 229.813 1083.15 228.655 1085.8 227.266C1088.51 225.877 1090.95 224.431 1093.09 222.926C1095.31 221.306 1097.24 219.801 1098.88 218.412V110.421C1096.95 109.264 1094.7 108.106 1092.13 106.949C1089.62 105.791 1086.91 104.808 1083.98 103.997C1081.12 103.071 1078.15 102.377 1075.07 101.914C1072 101.335 1069 101.046 1066.07 101.046C1059.42 101.046 1053.09 101.335 1047.09 101.914C1041.08 102.493 1035.83 104.055 1031.32 106.602C1026.82 109.148 1023.21 113.083 1020.49 118.408C1017.85 123.616 1016.52 130.908 1016.52 140.284V191.327C1016.52 197.462 1017.13 202.728 1018.35 207.127C1019.56 211.525 1021.24 215.229 1023.39 218.238C1025.6 221.248 1028.25 223.678 1031.32 225.53C1034.4 227.266 1037.76 228.655 1041.4 229.697C1045.05 230.623 1048.94 231.26 1053.09 231.607C1057.31 231.838 1061.63 231.954 1066.07 231.954Z" fill="#3D3B49"/>
<path d="M1190.46 266.678H1163.22V68.7529H1190.46V266.678ZM1176.95 0C1182.24 0 1186.42 1.44682 1189.5 4.34046C1192.57 7.11835 1194.11 11.5746 1194.11 17.7091V26.39C1194.11 31.9458 1192.57 35.939 1189.5 38.3697C1186.42 40.8003 1182.24 42.0156 1176.95 42.0156C1171.87 42.0156 1167.76 40.8003 1164.62 38.3697C1161.54 35.939 1160.01 31.9458 1160.01 26.39V17.7091C1160.01 11.5746 1161.54 7.11835 1164.62 4.34046C1167.76 1.44682 1171.87 0 1176.95 0Z" fill="#3D3B49"/>
<path d="M1266.6 66.3222H1293.84V95.4901H1266.6V266.678H1241.08V95.4901H1220.92V66.3222H1241.08V5.90302H1266.6V66.3222Z" fill="#3D3B49"/>
<path d="M1439.68 195.842C1437.89 193.295 1435.67 190.807 1433.03 188.376C1430.38 185.945 1427.13 183.804 1423.27 181.952C1419.41 179.984 1414.8 178.422 1409.44 177.264C1404.15 175.991 1397.93 175.355 1390.78 175.355C1384.41 175.355 1378.37 175.586 1372.65 176.049C1367.01 176.396 1362.04 177.554 1357.75 179.521C1353.46 181.373 1350.06 184.383 1347.56 188.55C1345.06 192.716 1343.81 198.504 1343.81 205.911V228.135C1350.1 229.755 1357.03 231.086 1364.61 232.128C1372.19 233.169 1380.63 233.69 1389.92 233.69C1397.35 233.69 1405.25 233.285 1413.62 232.475C1422.05 231.549 1430.74 229.755 1439.68 227.093V195.842ZM1391.42 68.7529C1394.99 68.7529 1399.32 69.0422 1404.4 69.621C1409.47 70.1997 1414.76 71.2414 1420.27 72.7461C1425.77 74.135 1431.2 76.1027 1436.57 78.6491C1442 81.0798 1446.86 84.3206 1451.15 88.3717C1455.51 92.3071 1459.01 97.0527 1461.66 102.608C1464.31 108.164 1465.63 114.704 1465.63 122.227V256.608C1459.62 258.576 1452.83 260.254 1445.25 261.643C1438.75 262.916 1430.99 264.074 1421.98 265.115C1412.97 266.157 1402.93 266.678 1391.85 266.678C1380.84 266.678 1369.12 265.925 1356.68 264.421C1344.31 262.916 1331.37 260.312 1317.86 256.608V194.105C1317.86 187.392 1318.82 181.547 1320.75 176.57C1322.75 171.477 1325.47 167.137 1328.9 163.548C1332.33 159.96 1336.37 157.009 1341.02 154.694C1345.67 152.379 1350.67 150.527 1356.03 149.138C1361.39 147.749 1366.97 146.823 1372.76 146.36C1378.55 145.782 1384.34 145.492 1390.13 145.492C1398.93 145.492 1406.4 146.418 1412.55 148.27C1418.77 150.006 1423.91 151.916 1427.99 153.999C1432.71 156.546 1436.6 159.382 1439.68 162.507V134.381C1439.68 129.635 1438.96 125.584 1437.53 122.227C1436.1 118.755 1434.17 115.861 1431.74 113.546C1429.31 111.116 1426.52 109.206 1423.38 107.817C1420.23 106.312 1416.94 105.155 1413.51 104.345C1410.08 103.534 1406.58 103.014 1403 102.782C1399.5 102.551 1396.21 102.435 1393.14 102.435C1389.92 102.435 1386.49 102.608 1382.84 102.956C1379.2 103.187 1375.55 103.708 1371.9 104.518C1368.33 105.328 1364.86 106.486 1361.5 107.991C1358.21 109.38 1355.28 111.289 1352.71 113.72C1350.13 116.151 1348.06 119.102 1346.49 122.575C1344.99 125.931 1344.24 129.982 1344.24 134.728L1317.64 123.616C1317.64 115.861 1318.82 109.148 1321.18 103.477C1323.54 97.6893 1326.65 92.7701 1330.51 88.719C1334.44 84.6679 1338.95 81.3691 1344.02 78.8227C1349.1 76.1606 1354.35 74.135 1359.79 72.7461C1365.29 71.2414 1370.76 70.1997 1376.19 69.621C1381.63 69.0422 1386.7 68.7529 1391.42 68.7529Z" fill="#3D3B49"/>
<path d="M1527.4 266.678H1502.95V5.90302H1527.4V266.678Z" fill="#3D3B49"/>
<path d="M1736.29 2.08342C1746.01 2.08342 1755.41 3.06726 1764.49 5.03493C1773.64 6.88686 1781.83 10.1277 1789.05 14.7576C1796.34 19.2716 1802.31 25.4062 1806.96 33.1611C1811.68 40.9161 1814.43 50.5808 1815.22 62.1554L1787.34 74.6559C1787.34 67.7112 1785.87 62.0396 1782.94 57.6413C1780.08 53.1272 1776.25 49.597 1771.46 47.0506C1766.75 44.3884 1761.31 42.5365 1755.16 41.4948C1749.09 40.4531 1742.8 39.9322 1736.29 39.9322C1729.93 39.9322 1723.67 40.3952 1717.52 41.3212C1711.38 42.2471 1705.84 43.9833 1700.9 46.5297C1696.04 49.0761 1692.11 52.6064 1689.11 57.1204C1686.1 61.6345 1684.6 67.4797 1684.6 74.6559V115.977H1815.22V205.911C1815.22 213.666 1814.14 220.611 1812 226.746C1809.93 232.764 1807.03 238.031 1803.31 242.545C1799.67 246.943 1795.31 250.705 1790.23 253.83C1785.23 256.839 1779.79 259.27 1773.93 261.122C1768.14 262.974 1762.03 264.305 1755.59 265.115C1749.16 265.925 1742.73 266.331 1736.29 266.331C1729.71 266.331 1723.24 265.925 1716.88 265.115C1710.52 264.305 1704.48 262.974 1698.76 261.122C1693.04 259.27 1687.71 256.839 1682.78 253.83C1677.92 250.705 1673.63 246.943 1669.91 242.545C1666.19 238.031 1663.19 232.764 1660.9 226.746C1658.62 220.727 1657.22 213.782 1656.72 205.911L1684.6 193.411C1684.6 200.587 1686.1 206.432 1689.11 210.946C1692.11 215.46 1696.04 218.991 1700.9 221.537C1705.84 224.083 1711.38 225.82 1717.52 226.746C1723.67 227.672 1729.93 228.135 1736.29 228.135C1742.8 228.135 1749.09 227.672 1755.16 226.746C1761.31 225.704 1766.75 223.91 1771.46 221.363C1776.25 218.701 1780.08 215.113 1782.94 210.599C1785.87 206.085 1787.34 200.356 1787.34 193.411V151.048H1656.72V62.1554C1656.72 54.4004 1657.76 47.5714 1659.83 41.6684C1661.98 35.6496 1664.87 30.4411 1668.52 26.0428C1672.24 21.5287 1676.63 17.7669 1681.71 14.7576C1686.78 11.6324 1692.25 9.1439 1698.12 7.29197C1704.05 5.44004 1710.23 4.10897 1716.67 3.29875C1723.17 2.48853 1729.71 2.08342 1736.29 2.08342Z" fill="#3D3B49"/>
<path d="M1842.03 79.17C1844.03 78.244 1846.96 77.0865 1850.82 75.6976C1854.75 74.3087 1859.4 73.0355 1864.76 71.878C1870.12 70.6048 1876.09 69.5631 1882.67 68.7529C1889.32 67.8269 1896.43 67.3639 1904.01 67.3639C1917.45 67.3639 1929.28 68.9844 1939.5 72.2252C1949.8 75.4661 1958.41 80.964 1965.35 88.719C1972.28 96.4739 1977.5 106.775 1981 119.623C1984.58 132.471 1986.37 148.502 1986.37 167.715C1986.37 186.582 1984.43 202.381 1980.57 215.113C1976.71 227.729 1971.42 237.857 1964.7 245.496C1957.98 253.136 1950.12 258.576 1941.11 261.816C1932.1 265.057 1922.45 266.678 1912.16 266.678C1903.72 266.678 1895.89 265.868 1888.67 264.247C1881.45 262.627 1875.05 259.965 1869.48 256.261V332.653H1842.03V79.17ZM1905.29 104.518C1900.65 104.518 1896.5 104.75 1892.86 105.213C1889.28 105.676 1886.03 106.312 1883.1 107.123C1880.24 107.817 1877.7 108.685 1875.48 109.727C1873.27 110.653 1871.27 111.694 1869.48 112.852V223.968C1872.55 225.357 1875.41 226.514 1878.06 227.44C1880.77 228.25 1883.67 228.887 1886.74 229.35C1889.89 229.813 1893.46 230.16 1897.47 230.392C1901.54 230.507 1906.44 230.565 1912.16 230.565C1920.59 230.565 1927.78 229.003 1933.71 225.877C1939.72 222.637 1944.61 218.238 1948.4 212.682C1952.26 207.127 1955.09 200.529 1956.88 192.89C1958.66 185.135 1959.56 176.743 1959.56 167.715C1959.56 155.446 1958.34 145.261 1955.91 137.158C1953.48 129.056 1949.94 122.575 1945.29 117.713C1940.65 112.852 1934.96 109.437 1928.24 107.47C1921.52 105.502 1913.87 104.518 1905.29 104.518Z" fill="#3D3B49"/>
<path d="M2087.17 68.7529C2098.18 68.7529 2107.61 70.2576 2115.48 73.2669C2123.34 76.1606 2129.78 80.5589 2134.78 86.4619C2139.86 92.2492 2143.54 99.4833 2145.82 108.164C2148.18 116.845 2149.36 126.973 2149.36 138.547V266.678H2121.27V149.312C2121.27 142.83 2120.73 137.274 2119.66 132.644C2118.59 127.899 2117.12 123.906 2115.26 120.665C2113.48 117.308 2111.37 114.588 2108.94 112.505C2106.5 110.421 2103.97 108.859 2101.32 107.817C2098.75 106.66 2096.1 105.907 2093.39 105.56C2090.67 105.097 2088.1 104.865 2085.67 104.865C2081.09 104.865 2076.73 105.386 2072.58 106.428C2068.44 107.47 2064.5 108.917 2060.79 110.769C2057.07 112.505 2053.57 114.588 2050.28 117.019C2046.99 119.449 2043.91 121.996 2041.06 124.658V266.678H2012.96V2.43066H2041.06V91.6705C2044.34 88.4296 2047.7 85.4202 2051.14 82.6423C2054.57 79.8644 2058.14 77.4338 2061.86 75.3504C2065.65 73.2669 2069.62 71.6465 2073.76 70.4891C2077.98 69.3316 2082.45 68.7529 2087.17 68.7529Z" fill="#3D3B49"/>
<path d="M2256.6 68.7529C2260.25 68.7529 2264.64 69.0422 2269.79 69.621C2274.94 70.1997 2280.26 71.2414 2285.77 72.7461C2291.34 74.135 2296.85 76.1606 2302.28 78.8227C2307.72 81.3691 2312.58 84.6679 2316.87 88.719C2321.23 92.7701 2324.73 97.6893 2327.38 103.477C2330.09 109.148 2331.45 115.861 2331.45 123.616V182.299H2208.56V226.746C2217.21 228.713 2225.54 230.102 2233.54 230.912C2241.55 231.607 2249.24 231.954 2256.6 231.954C2267.82 231.954 2277.98 231.26 2287.05 229.871C2296.21 228.482 2304.1 226.919 2310.75 225.183C2318.4 223.215 2325.3 220.958 2331.45 218.412V256.955C2317.87 260.428 2304.75 262.916 2292.09 264.421C2279.51 265.925 2267.68 266.678 2256.6 266.678C2245.45 266.678 2235.33 266.215 2226.25 265.289C2217.17 264.247 2209.38 263.09 2202.87 261.816C2195.3 260.428 2188.47 258.807 2182.39 256.955V123.616C2182.39 115.861 2183.57 109.148 2185.93 103.477C2188.29 97.6893 2191.44 92.7701 2195.37 88.719C2199.3 84.6679 2203.8 81.3691 2208.88 78.8227C2214.03 76.1606 2219.35 74.135 2224.86 72.7461C2230.36 71.2414 2235.83 70.1997 2241.26 69.621C2246.77 69.0422 2251.88 68.7529 2256.6 68.7529ZM2208.56 154.52H2304.86V134.381C2304.86 129.635 2304.14 125.584 2302.71 122.227C2301.28 118.755 2299.35 115.861 2296.92 113.546C2294.56 111.231 2291.77 109.38 2288.56 107.991C2285.41 106.486 2282.12 105.386 2278.69 104.692C2275.26 103.882 2271.79 103.361 2268.29 103.129C2264.86 102.898 2261.6 102.782 2258.53 102.782C2255.31 102.782 2251.85 102.898 2248.13 103.129C2244.48 103.361 2240.8 103.882 2237.08 104.692C2233.36 105.502 2229.79 106.66 2226.36 108.164C2222.93 109.553 2219.89 111.463 2217.24 113.894C2214.6 116.209 2212.49 119.102 2210.92 122.575C2209.34 125.931 2208.56 129.982 2208.56 134.728V154.52Z" fill="#3D3B49"/>
<path d="M2459.49 68.7529C2459.49 80.7904 2459.24 93.3488 2458.74 106.428C2458.24 119.392 2457.27 132.76 2455.84 146.534H2429.89C2430.54 142.599 2431.14 138.316 2431.72 133.686C2432.14 129.751 2432.54 125.179 2432.9 119.97C2433.32 114.646 2433.54 109.032 2433.54 103.129C2427.25 103.361 2422.03 104.345 2417.88 106.081C2413.81 107.701 2410.41 109.669 2407.69 111.984C2404.98 114.183 2402.76 116.44 2401.05 118.755C2399.33 121.07 2397.79 122.922 2396.43 124.311V266.678H2368.98V123.269C2368.7 119.565 2368.02 116.44 2366.95 113.894C2365.94 111.347 2364.87 109.264 2363.73 107.643C2362.44 105.676 2360.98 104.055 2359.33 102.782L2370.7 68.7529C2373.34 70.2576 2375.95 72.2831 2378.53 74.8295C2380.74 77.0287 2383.07 79.8644 2385.5 83.3368C2388 86.6934 2390.22 90.8603 2392.15 95.8373C2395.79 91.7862 2399.15 88.3717 2402.23 85.5938C2405.3 82.7002 2408.27 80.2696 2411.13 78.3019C2414.06 76.3342 2417.06 74.8295 2420.13 73.7878C2423.28 72.6303 2426.71 71.7044 2430.43 71.0099C2434.22 70.3154 2438.44 69.8525 2443.08 69.621C2447.8 69.2737 2453.27 68.9844 2459.49 68.7529Z" fill="#3D3B49"/>
<path d="M2561.15 68.7529C2564.8 68.7529 2569.19 69.0422 2574.34 69.621C2579.49 70.1997 2584.81 71.2414 2590.32 72.7461C2595.89 74.135 2601.4 76.1606 2606.83 78.8227C2612.27 81.3691 2617.13 84.6679 2621.42 88.719C2625.78 92.7701 2629.28 97.6893 2631.92 103.477C2634.64 109.148 2636 115.861 2636 123.616V182.299H2513.11V226.746C2521.76 228.713 2530.09 230.102 2538.09 230.912C2546.1 231.607 2553.79 231.954 2561.15 231.954C2572.37 231.954 2582.52 231.26 2591.6 229.871C2600.76 228.482 2608.65 226.919 2615.3 225.183C2622.95 223.215 2629.85 220.958 2636 218.412V256.955C2622.42 260.428 2609.3 262.916 2596.64 264.421C2584.06 265.925 2572.23 266.678 2561.15 266.678C2550 266.678 2539.88 266.215 2530.8 265.289C2521.72 264.247 2513.93 263.09 2507.42 261.816C2499.85 260.428 2493.02 258.807 2486.94 256.955V123.616C2486.94 115.861 2488.12 109.148 2490.48 103.477C2492.84 97.6893 2495.99 92.7701 2499.92 88.719C2503.85 84.6679 2508.35 81.3691 2513.43 78.8227C2518.58 76.1606 2523.9 74.135 2529.41 72.7461C2534.91 71.2414 2540.38 70.1997 2545.81 69.621C2551.32 69.0422 2556.43 68.7529 2561.15 68.7529ZM2513.11 154.52H2609.41V134.381C2609.41 129.635 2608.69 125.584 2607.26 122.227C2605.83 118.755 2603.9 115.861 2601.47 113.546C2599.11 111.231 2596.32 109.38 2593.11 107.991C2589.96 106.486 2586.67 105.386 2583.24 104.692C2579.81 103.882 2576.34 103.361 2572.84 103.129C2569.41 102.898 2566.15 102.782 2563.08 102.782C2559.86 102.782 2556.4 102.898 2552.68 103.129C2549.03 103.361 2545.35 103.882 2541.63 104.692C2537.91 105.502 2534.34 106.66 2530.91 108.164C2527.48 109.553 2524.44 111.463 2521.79 113.894C2519.15 116.209 2517.04 119.102 2515.47 122.575C2513.89 125.931 2513.11 129.982 2513.11 134.728V154.52Z" fill="#3D3B49"/>
<path d="M757.038 409.703V534.297H742V409.703H757.038Z" fill="#3D3B49"/>
<path d="M967.621 409.703V534.297H953.068L885.399 436.471H884.186V534.297H869.149V409.703H883.701L951.613 507.772H952.826V409.703H967.621Z" fill="#3D3B49"/>
<path d="M1072.88 423.087V409.703H1166.02V423.087H1126.97V534.297H1111.93V423.087H1072.88Z" fill="#3D3B49"/>
<path d="M1271.18 534.297V409.703H1346.13V423.087H1286.22V465.186H1342.25V478.57H1286.22V520.913H1347.1V534.297H1271.18Z" fill="#3D3B49"/>
<path d="M1455.19 534.297V409.703H1497.15C1506.86 409.703 1514.82 411.366 1521.04 414.692C1527.27 417.977 1531.88 422.499 1534.87 428.259C1537.86 434.018 1539.36 440.568 1539.36 447.909C1539.36 455.25 1537.86 461.759 1534.87 467.437C1531.88 473.115 1527.29 477.577 1521.1 480.821C1514.92 484.025 1507.02 485.627 1497.4 485.627H1463.44V472H1496.91C1503.54 472 1508.88 471.027 1512.92 469.08C1517 467.133 1519.95 464.375 1521.77 460.806C1523.63 457.196 1524.56 452.897 1524.56 447.909C1524.56 442.92 1523.63 438.56 1521.77 434.829C1519.91 431.098 1516.94 428.218 1512.86 426.19C1508.78 424.122 1503.38 423.087 1496.67 423.087H1470.23V534.297H1455.19ZM1513.65 478.327L1544.21 534.297H1526.74L1496.67 478.327H1513.65Z" fill="#3D3B49"/>
<path d="M1651.47 534.297H1635.7L1681.3 409.703H1696.82L1742.42 534.297H1726.65L1689.55 429.414H1688.58L1651.47 534.297ZM1657.29 485.627H1720.83V499.011H1657.29V485.627Z" fill="#3D3B49"/>
<path d="M1937.81 448.639H1922.78C1921.89 444.299 1920.33 440.487 1918.11 437.202C1915.92 433.916 1913.26 431.158 1910.1 428.928C1906.99 426.657 1903.53 424.953 1899.73 423.817C1895.93 422.682 1891.97 422.114 1887.85 422.114C1880.33 422.114 1873.52 424.02 1867.42 427.833C1861.35 431.645 1856.52 437.262 1852.92 444.684C1849.37 452.106 1847.59 461.212 1847.59 472C1847.59 482.788 1849.37 491.894 1852.92 499.316C1856.52 506.738 1861.35 512.355 1867.42 516.167C1873.52 519.98 1880.33 521.886 1887.85 521.886C1891.97 521.886 1895.93 521.318 1899.73 520.183C1903.53 519.047 1906.99 517.364 1910.1 515.133C1913.26 512.862 1915.92 510.084 1918.11 506.798C1920.33 503.473 1921.89 499.66 1922.78 495.361H1937.81C1936.68 501.729 1934.62 507.427 1931.63 512.456C1928.64 517.485 1924.92 521.764 1920.47 525.293C1916.03 528.781 1911.03 531.437 1905.5 533.262C1900 535.087 1894.12 536 1887.85 536C1877.26 536 1867.84 533.404 1859.59 528.213C1851.35 523.022 1844.86 515.64 1840.13 506.068C1835.4 496.497 1833.04 485.141 1833.04 472C1833.04 458.859 1835.4 447.503 1840.13 437.932C1844.86 428.36 1851.35 420.978 1859.59 415.787C1867.84 410.596 1877.26 408 1887.85 408C1894.12 408 1900 408.913 1905.5 410.738C1911.03 412.563 1916.03 415.24 1920.47 418.768C1924.92 422.256 1928.64 426.515 1931.63 431.544C1934.62 436.532 1936.68 442.231 1937.81 448.639Z" fill="#3D3B49"/>
<path d="M2037.28 423.087V409.703H2130.42V423.087H2091.37V534.297H2076.33V423.087H2037.28Z" fill="#3D3B49"/>
<path d="M2250.62 409.703V534.297H2235.59V409.703H2250.62Z" fill="#3D3B49"/>
<path d="M2367.83 409.703L2404.69 514.586H2406.15L2443.02 409.703H2458.78L2413.18 534.297H2397.66L2352.06 409.703H2367.83Z" fill="#3D3B49"/>
<path d="M2560.08 534.297V409.703H2635.03V423.087H2575.12V465.186H2631.15V478.57H2575.12V520.913H2636V534.297H2560.08Z" fill="#3D3B49"/>
</svg>
