<svg width="376" height="362" viewBox="0 0 376 362" fill="none" xmlns="http://www.w3.org/2000/svg">
<path d="M341.6 109.199C356.659 109.199 368.906 96.9483 368.906 81.8921C368.906 66.8359 356.659 54.5854 341.6 54.5854C326.54 54.5854 314.293 66.8359 314.293 81.8921C314.293 96.9483 326.54 109.199 341.6 109.199ZM341.6 68.2387C349.126 68.2387 355.253 74.3623 355.253 81.8921C355.253 89.4219 349.126 95.5454 341.6 95.5454C334.073 95.5454 327.947 89.4219 327.947 81.8921C327.947 74.3623 334.073 68.2387 341.6 68.2387ZM52.4137 132.102C49.6403 129.552 49.4543 125.236 52.0075 122.46C59.5612 114.23 69.8678 109.526 81.014 109.216C84.8933 109.052 87.9277 112.08 88.0335 115.85C88.1342 119.62 85.1663 122.76 81.3997 122.862C73.9672 123.069 67.0995 126.206 62.0598 131.693C60.7132 133.159 58.8734 133.903 57.0336 133.903C55.3799 133.903 53.7261 133.309 52.4137 132.102ZM112.947 166.486C115.861 168.876 116.294 173.177 113.901 176.093C106.914 184.62 96.6351 190.044 85.6954 190.974C85.4957 190.991 85.3028 190.998 85.1083 190.998C81.5943 190.998 78.6144 188.308 78.3158 184.748C77.9949 180.991 80.7819 177.687 84.5366 177.368C91.9367 176.742 98.6097 173.214 103.344 167.442C105.72 164.532 110.027 164.089 112.947 166.486ZM110.734 120.785C118.74 128.569 123.146 138.999 123.146 150.159C123.146 153.929 120.093 156.985 116.32 156.985C112.546 156.985 109.493 153.929 109.493 150.159C109.493 142.719 106.553 135.765 101.212 130.571C98.5125 127.945 98.4527 123.622 101.079 120.918C103.708 118.218 108.027 118.155 110.734 120.785ZM64.3074 170.799C67.1542 173.265 67.4614 177.58 64.9935 180.426C63.6401 181.986 61.7406 182.783 59.8343 182.783C58.2471 182.783 56.6547 182.234 55.3611 181.116C46.9148 173.789 41.9143 163.626 41.2947 152.493C41.0814 148.727 43.9605 145.506 47.7289 145.293C51.4221 145.08 54.716 147.962 54.9225 151.727C55.3406 159.139 58.6737 165.913 64.3074 170.799ZM368.906 191.119H289.772L180.246 3.3598C177.792 -0.833476 170.899 -0.833476 168.447 3.3598L120.441 85.657C109.222 78.9754 96.1675 75.0654 82.1865 75.0654C40.7793 75.0654 7.09313 108.752 7.09313 150.159C7.09313 177.974 22.332 202.251 44.8634 215.227L1.19318 290.078C-0.0339112 292.188 -0.0475662 294.799 1.1727 296.918C2.39297 299.038 4.64577 300.345 7.09313 300.345H174.346C178.12 300.345 181.173 297.289 181.173 293.519C181.173 289.749 178.12 286.692 174.346 286.692H18.9801L57.3391 220.939C65.13 223.684 73.4688 225.252 82.1865 225.252C123.594 225.252 157.28 191.566 157.28 150.159C157.28 127.658 147.282 107.49 131.554 93.7141L174.346 20.3497L273.958 191.12H211.893C208.12 191.12 205.066 194.177 205.066 197.947V354.96C205.066 358.73 208.12 361.787 211.893 361.787H368.906C372.68 361.787 375.733 358.73 375.733 354.96V197.947C375.733 194.175 372.68 191.119 368.906 191.119ZM143.626 150.159C143.626 184.036 116.067 211.599 82.1865 211.599C48.3057 211.599 20.7465 184.036 20.7465 150.159C20.7465 116.281 48.3057 88.7187 82.1865 88.7187C116.067 88.7187 143.626 116.283 143.626 150.159ZM218.72 348.132V204.772H362.08L218.72 348.132ZM289.497 30.6921C289.497 26.422 292.958 22.9609 297.228 22.9609C301.498 22.9609 304.959 26.422 304.959 30.6921C304.959 34.9604 301.498 38.4216 297.228 38.4216C292.958 38.4216 289.497 34.9621 289.497 30.6921Z" fill="#222030"/>
</svg>
