<svg width="362" height="376" viewBox="0 0 362 376" fill="none" xmlns="http://www.w3.org/2000/svg">
<path d="M177.587 307.467V266.507H293.64C319.989 266.507 341.427 245.069 341.427 218.72C341.427 192.371 319.989 170.933 293.64 170.933H259.507V61.7066C259.507 35.3574 238.069 13.9199 211.72 13.9199C185.371 13.9199 163.933 35.3574 163.933 61.7066V89.0133H47.8799C21.5307 89.0133 0.0932617 110.451 0.0932617 136.8C0.0932617 163.149 21.5307 184.587 47.8799 184.587H82.0133V307.467C82.0133 333.816 103.451 355.253 129.8 355.253C156.149 355.253 177.587 333.816 177.587 307.467ZM177.587 61.7066C177.587 42.8872 192.901 27.5733 211.72 27.5733C230.539 27.5733 245.853 42.8872 245.853 61.7066V170.933H217.826C226.689 162.253 232.2 150.156 232.2 136.8C232.2 110.451 210.762 89.0133 184.413 89.0133H177.587V61.7066ZM13.7466 136.8C13.7466 117.981 29.0605 102.667 47.8799 102.667H184.413C203.233 102.667 218.547 117.981 218.547 136.8C218.547 155.619 203.233 170.933 184.413 170.933C180.643 170.933 177.587 173.99 177.587 177.76C177.587 181.53 180.643 184.587 184.413 184.587H293.64C312.459 184.587 327.773 199.901 327.773 218.72C327.773 237.539 312.459 252.853 293.64 252.853H157.107C138.287 252.853 122.973 237.539 122.973 218.72C122.973 199.901 138.287 184.587 157.107 184.587C160.877 184.587 163.933 181.53 163.933 177.76C163.933 173.99 160.877 170.933 157.107 170.933H47.8799C29.0605 170.933 13.7466 155.619 13.7466 136.8ZM95.6666 307.467V184.587H123.693C114.831 193.267 109.32 205.364 109.32 218.72C109.32 245.069 130.757 266.507 157.107 266.507H163.933V307.467C163.933 326.286 148.619 341.6 129.8 341.6C110.981 341.6 95.6666 326.286 95.6666 307.467ZM327.773 54.8799C342.829 54.8799 355.08 42.6295 355.08 27.5733C355.08 12.5171 342.829 0.266602 327.773 0.266602C312.717 0.266602 300.467 12.5171 300.467 27.5733C300.467 42.6295 312.717 54.8799 327.773 54.8799ZM327.773 13.9199C335.303 13.9199 341.427 20.0435 341.427 27.5733C341.427 35.1031 335.303 41.2266 327.773 41.2266C320.243 41.2266 314.12 35.1031 314.12 27.5733C314.12 20.0435 320.243 13.9199 327.773 13.9199ZM61.5333 314.293C57.7632 314.293 54.7066 311.237 54.7066 307.467V280.16C54.7066 276.39 57.7632 273.333 61.5333 273.333C65.3033 273.333 68.3599 276.39 68.3599 280.16V307.467C68.3599 311.237 65.3033 314.293 61.5333 314.293ZM86.6161 350.56C89.5192 352.966 89.9254 357.271 87.5224 360.174C86.1724 361.803 84.2217 362.647 82.259 362.647C80.7264 362.647 79.1819 362.133 77.9087 361.08C70.0461 354.571 63.7827 346.182 59.7959 336.83C58.3196 333.36 59.9324 329.349 63.3987 327.873C66.8683 326.394 70.879 328.006 72.3552 331.476C75.4938 338.837 80.4226 345.433 86.6161 350.56ZM308.473 293.813C308.473 297.583 305.416 300.64 301.646 300.64H274.339C270.569 300.64 267.513 297.583 267.513 293.813C267.513 290.043 270.569 286.987 274.339 286.987H301.646C305.416 286.987 308.473 290.043 308.473 293.813ZM361.907 293.813C361.907 297.583 358.85 300.64 355.08 300.64H328.953C325.183 300.64 322.126 297.583 322.126 293.813C322.126 290.043 325.183 286.987 328.953 286.987H355.08C358.85 286.987 361.907 290.043 361.907 293.813ZM253.859 293.813C253.859 297.583 250.803 300.64 247.033 300.64H219.726C215.956 300.64 212.899 297.583 212.899 293.813C212.899 290.043 215.956 286.987 219.726 286.987H247.033C250.803 286.987 253.859 290.043 253.859 293.813ZM187.733 345.261C190.516 347.804 190.713 352.122 188.17 354.903C181.283 362.447 172.596 368.294 163.053 371.81C162.276 372.096 161.476 372.233 160.692 372.233C157.916 372.233 155.303 370.523 154.285 367.763C152.982 364.227 154.796 360.3 158.332 358.996C165.834 356.233 172.665 351.633 178.088 345.696C180.626 342.919 184.946 342.716 187.733 345.261ZM204.893 299.461V311.791C204.893 317.408 204.163 322.985 202.724 328.361C201.907 331.411 199.15 333.425 196.135 333.425C195.551 333.425 194.959 333.348 194.365 333.188C190.725 332.215 188.562 328.471 189.538 324.829C190.668 320.605 191.242 316.218 191.242 311.791V299.461C191.242 295.691 194.298 292.634 198.068 292.634C201.838 292.634 204.893 295.691 204.893 299.461ZM140.627 368.907C140.627 372.677 137.57 375.733 133.8 375.733H118.65C114.104 375.733 109.561 375.254 105.151 374.303C101.468 373.509 99.1209 369.879 99.9145 366.193C100.701 362.507 104.307 360.163 108.025 360.957C111.491 361.704 115.068 362.08 118.652 362.08H133.802C137.57 362.08 140.627 365.137 140.627 368.907ZM296.149 92.4266C296.149 88.1565 299.61 84.6954 303.88 84.6954C308.15 84.6954 311.611 88.1565 311.611 92.4266C311.611 96.695 308.15 100.156 303.88 100.156C299.61 100.156 296.149 96.695 296.149 92.4266Z" fill="#222030"/>
</svg>
