<svg width="2511" height="400" viewBox="0 0 2511 400" fill="none" xmlns="http://www.w3.org/2000/svg">
<path d="M233.333 233.333H400V400H233.333V233.333Z" fill="#3D3B49"/>
<path d="M200 366.663C107.948 366.663 33.3365 292.041 33.3365 200C33.3365 107.94 107.956 33.3365 200 33.3365C292.041 33.3365 366.663 107.944 366.663 200H400C400 89.5497 310.45 0 200 0C89.5459 0 0 89.5497 0 200C0 310.45 89.5459 400 200 400V366.663Z" fill="#3D3B49"/>
<path d="M200 299.998C144.771 299.998 99.9981 255.225 99.9981 200C99.9981 144.76 144.771 99.9981 200 99.9981C255.225 99.9981 299.998 144.76 299.998 200H333.335C333.335 126.365 273.635 66.6654 200 66.6654C126.361 66.6654 66.6654 126.365 66.6654 200C66.6654 273.635 126.361 333.335 200 333.335V299.998Z" fill="#3D3B49"/>
<path d="M200 233.333C181.59 233.333 166.663 218.41 166.663 200C166.663 181.59 181.59 166.663 200 166.663C218.41 166.663 233.333 181.59 233.333 200H266.665C266.665 163.185 236.816 133.335 200 133.335C163.173 133.335 133.335 163.185 133.335 200C133.335 236.816 163.173 266.665 200 266.665V233.333Z" fill="#3D3B49"/>
<path d="M517 394.533V21.3212H664.137C692.423 21.3212 716.521 26.7274 736.43 37.5399C756.34 48.2308 771.515 63.1131 781.955 82.1868C792.517 101.139 797.798 123.007 797.798 147.79C797.798 172.574 792.456 194.442 781.773 213.394C771.09 232.346 755.612 247.107 735.338 257.677C715.185 268.246 690.784 273.531 662.134 273.531H568.352V210.296H649.387C664.562 210.296 677.066 207.684 686.899 202.46C696.854 197.115 704.259 189.765 709.115 180.41C714.093 170.934 716.581 160.061 716.581 147.79C716.581 135.399 714.093 124.586 709.115 115.353C704.259 105.998 696.854 98.7699 686.899 93.6674C676.944 88.4434 664.319 85.8314 649.022 85.8314H595.849V394.533H517Z" fill="#3D3B49"/>
<path d="M847.557 394.533V114.624H925.131V394.533H847.557ZM886.526 78.5421C874.993 78.5421 865.099 74.7153 856.844 67.0615C848.71 59.2863 844.643 49.9924 844.643 39.18C844.643 28.489 848.71 19.3166 856.844 11.6629C865.099 3.88763 874.993 0 886.526 0C898.059 0 907.893 3.88763 916.026 11.6629C924.282 19.3166 928.409 28.489 928.409 39.18C928.409 49.9924 924.282 59.2863 916.026 67.0615C907.893 74.7153 898.059 78.5421 886.526 78.5421Z" fill="#3D3B49"/>
<path d="M1052.1 114.624L1103.45 212.483L1156.08 114.624H1235.66L1154.62 254.579L1237.84 394.533H1158.63L1103.45 297.768L1049.19 394.533H969.063L1052.1 254.579L971.977 114.624H1052.1Z" fill="#3D3B49"/>
<path d="M1399.18 400C1370.41 400 1345.65 394.169 1324.89 382.506C1304.25 370.721 1288.34 354.077 1277.18 332.574C1266.01 310.949 1260.42 285.376 1260.42 255.854C1260.42 227.061 1266.01 201.792 1277.18 180.046C1288.34 158.299 1304.07 141.352 1324.34 129.203C1344.74 117.054 1368.65 110.98 1396.09 110.98C1414.54 110.98 1431.72 113.956 1447.62 119.909C1463.65 125.74 1477.61 134.548 1489.5 146.333C1501.52 158.117 1510.87 172.939 1517.55 190.797C1524.22 208.535 1527.56 229.309 1527.56 253.121V274.442H1291.38V226.333H1454.54C1454.54 215.156 1452.11 205.254 1447.26 196.629C1442.4 188.003 1435.66 181.26 1427.04 176.401C1418.55 171.42 1408.65 168.929 1397.36 168.929C1385.59 168.929 1375.15 171.663 1366.04 177.13C1357.06 182.475 1350.02 189.704 1344.92 198.815C1339.82 207.806 1337.21 217.828 1337.09 228.884V274.624C1337.09 288.474 1339.64 300.44 1344.74 310.524C1349.96 320.607 1357.3 328.383 1366.77 333.85C1376.24 339.317 1387.47 342.05 1400.46 342.05C1409.08 342.05 1416.97 340.835 1424.13 338.405C1431.29 335.976 1437.42 332.331 1442.52 327.472C1447.62 322.612 1451.51 316.659 1454.18 309.613L1525.92 314.351C1522.28 331.602 1514.82 346.667 1503.53 359.544C1492.36 372.301 1477.91 382.263 1460.19 389.431C1442.58 396.477 1422.25 400 1399.18 400Z" fill="#3D3B49"/>
<path d="M1655.76 21.3212V394.533H1578.19V21.3212H1655.76Z" fill="#3D3B49"/>
<path d="M1719.36 394.533V21.3212H1866.5C1894.78 21.3212 1918.88 26.7274 1938.79 37.5399C1958.7 48.2308 1973.88 63.1131 1984.32 82.1868C1994.88 101.139 2000.16 123.007 2000.16 147.79C2000.16 172.574 1994.82 194.442 1984.13 213.394C1973.45 232.346 1957.97 247.107 1937.7 257.677C1917.55 268.246 1893.14 273.531 1864.49 273.531H1770.71V210.296H1851.75C1866.92 210.296 1879.43 207.684 1889.26 202.46C1899.21 197.115 1906.62 189.765 1911.48 180.41C1916.45 170.934 1918.94 160.061 1918.94 147.79C1918.94 135.399 1916.45 124.586 1911.48 115.353C1906.62 105.998 1899.21 98.7699 1889.26 93.6674C1879.3 88.4434 1866.68 85.8314 1851.38 85.8314H1798.21V394.533H1719.36Z" fill="#3D3B49"/>
<path d="M2049.92 394.533V114.624H2125.12V163.462H2128.04C2133.14 146.09 2141.7 132.969 2153.71 124.1C2165.73 115.11 2179.57 110.615 2195.23 110.615C2199.12 110.615 2203.31 110.858 2207.8 111.344C2212.29 111.83 2216.23 112.498 2219.63 113.349V182.232C2215.99 181.139 2210.95 180.167 2204.52 179.317C2198.09 178.466 2192.2 178.041 2186.86 178.041C2175.44 178.041 2165.25 180.532 2156.26 185.513C2147.4 190.372 2140.36 197.175 2135.14 205.923C2130.04 214.67 2127.49 224.753 2127.49 236.173V394.533H2049.92Z" fill="#3D3B49"/>
<path d="M2373.1 400C2344.81 400 2320.35 393.986 2299.71 381.959C2279.2 369.81 2263.35 352.923 2252.18 331.298C2241.02 309.552 2235.43 284.343 2235.43 255.672C2235.43 226.758 2241.02 201.488 2252.18 179.863C2263.35 158.117 2279.2 141.23 2299.71 129.203C2320.35 117.054 2344.81 110.98 2373.1 110.98C2401.38 110.98 2425.79 117.054 2446.3 129.203C2466.94 141.23 2482.84 158.117 2494.01 179.863C2505.18 201.488 2510.77 226.758 2510.77 255.672C2510.77 284.343 2505.18 309.552 2494.01 331.298C2482.84 352.923 2466.94 369.81 2446.3 381.959C2425.79 393.986 2401.38 400 2373.1 400ZM2373.46 339.863C2386.33 339.863 2397.08 336.219 2405.69 328.929C2414.31 321.519 2420.81 311.435 2425.18 298.679C2429.67 285.923 2431.92 271.405 2431.92 255.125C2431.92 238.846 2429.67 224.328 2425.18 211.572C2420.81 198.815 2414.31 188.732 2405.69 181.321C2397.08 173.91 2386.33 170.205 2373.46 170.205C2360.47 170.205 2349.55 173.91 2340.68 181.321C2331.94 188.732 2325.33 198.815 2320.84 211.572C2316.47 224.328 2314.28 238.846 2314.28 255.125C2314.28 271.405 2316.47 285.923 2320.84 298.679C2325.33 311.435 2331.94 321.519 2340.68 328.929C2349.55 336.219 2360.47 339.863 2373.46 339.863Z" fill="#3D3B49"/>
</svg>
