<svg width="368" height="410" viewBox="0 0 368 410" fill="none" xmlns="http://www.w3.org/2000/svg">
<path d="M155.439 54.8133C170.498 54.8133 182.746 42.5628 182.746 27.5066C182.746 12.4504 170.498 0.199951 155.439 0.199951C140.379 0.199951 128.132 12.4504 128.132 27.5066C128.132 42.5628 140.378 54.8133 155.439 54.8133ZM155.439 13.8533C162.965 13.8533 169.092 19.9768 169.092 27.5066C169.092 35.0364 162.965 41.16 155.439 41.16C147.912 41.16 141.786 35.0364 141.786 27.5066C141.786 19.9768 147.911 13.8533 155.439 13.8533ZM16.395 187.933C16.395 192.202 12.9339 195.663 8.66553 195.663C4.39715 195.663 0.936035 192.202 0.936035 187.933C0.936035 183.663 4.39715 180.202 8.66553 180.202C12.9339 180.202 16.395 183.663 16.395 187.933ZM62.3743 30.92C62.3743 26.6499 65.8354 23.1888 70.1038 23.1888C74.3722 23.1888 77.8333 26.6499 77.8333 30.92C77.8333 35.1883 74.3722 38.6494 70.1038 38.6494C65.8354 38.6494 62.3743 35.1883 62.3743 30.92ZM350.272 136.733C359.532 136.733 367.066 129.2 367.066 119.94V85.2602C367.066 75.9998 359.532 68.4666 350.272 68.4666H315.592C306.332 68.4666 298.799 75.9998 298.799 85.2602V95.7733H93.9989V85.2602C93.9989 75.9998 86.4656 68.4666 77.2053 68.4666H42.5258C33.2654 68.4666 25.7322 75.9998 25.7322 85.2602V119.94C25.7322 129.2 33.2654 136.733 42.5258 136.733H53.0389V341.533H42.5258C33.2654 341.533 25.7322 349.066 25.7322 358.327V393.006C25.7322 402.267 33.2654 409.8 42.5258 409.8H77.2053C86.4656 409.8 93.9989 402.267 93.9989 393.006V382.493H298.799V393.006C298.799 402.267 306.332 409.8 315.592 409.8H350.272C359.532 409.8 367.066 402.267 367.066 393.006V358.327C367.066 349.066 359.532 341.533 350.272 341.533H339.759V136.733H350.272ZM312.452 85.2602C312.452 83.5297 313.858 82.1199 315.592 82.1199H350.272C352.006 82.1199 353.412 83.5297 353.412 85.2602V119.94C353.412 121.67 352.006 123.08 350.272 123.08H315.592C313.858 123.08 312.452 121.67 312.452 119.94V85.2602ZM39.3855 119.94V85.2602C39.3855 83.5297 40.7918 82.1199 42.5258 82.1199H77.2053C78.9392 82.1199 80.3455 83.5297 80.3455 85.2602V119.94C80.3455 121.67 78.9392 123.08 77.2053 123.08H42.5258C40.7918 123.08 39.3855 121.67 39.3855 119.94ZM80.3455 393.006C80.3455 394.737 78.9392 396.147 77.2053 396.147H42.5258C40.7918 396.147 39.3855 394.737 39.3855 393.006V358.327C39.3855 356.596 40.7918 355.187 42.5258 355.187H77.2053C78.9392 355.187 80.3455 356.596 80.3455 358.327V393.006ZM353.412 358.327V393.006C353.412 394.737 352.006 396.147 350.272 396.147H315.592C313.858 396.147 312.452 394.737 312.452 393.006V358.327C312.452 356.596 313.858 355.187 315.592 355.187H350.272C352.004 355.187 353.412 356.596 353.412 358.327ZM326.106 341.533H315.592C306.332 341.533 298.799 349.066 298.799 358.327V368.84H93.9989V358.327C93.9989 349.066 86.4656 341.533 77.2053 341.533H66.6922V136.733H77.2053C86.4656 136.733 93.9989 129.2 93.9989 119.94V109.427H298.799V119.94C298.799 129.2 306.332 136.733 315.592 136.733H326.106V341.533ZM128.132 143.56H107.652C103.879 143.56 100.826 146.617 100.826 150.387V327.88C100.826 331.65 103.879 334.707 107.652 334.707H128.132C131.906 334.707 134.959 331.65 134.959 327.88V150.387C134.959 146.617 131.906 143.56 128.132 143.56ZM237.359 143.56H216.879C213.105 143.56 210.052 146.617 210.052 150.387V327.88C210.052 331.65 213.105 334.707 216.879 334.707H237.359C241.132 334.707 244.186 331.65 244.186 327.88V150.387C244.186 146.617 241.132 143.56 237.359 143.56ZM175.919 143.56H148.612C144.839 143.56 141.786 146.617 141.786 150.387V327.88C141.786 331.65 144.839 334.707 148.612 334.707H175.919C179.692 334.707 182.746 331.65 182.746 327.88V150.387C182.746 146.617 179.692 143.56 175.919 143.56ZM169.092 321.053H155.439V157.213H169.092V321.053ZM285.146 143.56H257.839C254.065 143.56 251.012 146.617 251.012 150.387V327.88C251.012 331.65 254.065 334.707 257.839 334.707H285.146C288.919 334.707 291.972 331.65 291.972 327.88V150.387C291.972 146.617 288.919 143.56 285.146 143.56ZM278.319 321.053H264.666V157.213H278.319V321.053ZM203.226 150.387V327.88C203.226 331.65 200.172 334.707 196.399 334.707C192.625 334.707 189.572 331.65 189.572 327.88V150.387C189.572 146.617 192.625 143.56 196.399 143.56C200.172 143.56 203.226 146.617 203.226 150.387Z" fill="#222030"/>
</svg>
