<svg width="376" height="401" viewBox="0 0 376 401" fill="none" xmlns="http://www.w3.org/2000/svg">
<path d="M348.16 24.7979C333.1 24.7979 320.853 37.0483 320.853 52.1045C320.853 67.1607 333.1 79.4112 348.16 79.4112C363.22 79.4112 375.467 67.1607 375.467 52.1045C375.467 37.0483 363.22 24.7979 348.16 24.7979ZM348.16 65.7579C340.634 65.7579 334.507 59.6343 334.507 52.1045C334.507 44.5747 340.634 38.4512 348.16 38.4512C355.686 38.4512 361.813 44.5747 361.813 52.1045C361.813 59.6343 355.686 65.7579 348.16 65.7579ZM296.057 7.7312C296.057 3.46112 299.518 0 303.787 0C308.055 0 311.516 3.46112 311.516 7.7312C311.516 11.9996 308.055 15.4607 303.787 15.4607C299.518 15.4607 296.057 11.9996 296.057 7.7312ZM241.444 28.2112C241.444 23.9411 244.905 20.48 249.173 20.48C253.442 20.48 256.903 23.9411 256.903 28.2112C256.903 32.4796 253.442 35.9407 249.173 35.9407C244.905 35.9407 241.444 32.4796 241.444 28.2112ZM341.333 140.851H307.2V106.718C307.2 102.948 304.147 99.8912 300.373 99.8912H259.413V58.9312C259.413 55.1612 256.36 52.1045 252.587 52.1045H6.82667C3.05323 52.1045 0 55.1612 0 58.9312V304.691C0 308.461 3.05323 311.518 6.82667 311.518H47.7867V352.478C47.7867 356.248 50.8399 359.305 54.6133 359.305H88.7467V393.438C88.7467 397.208 91.7999 400.265 95.5733 400.265H341.333C345.107 400.265 348.16 397.208 348.16 393.438V147.678C348.16 143.908 345.107 140.851 341.333 140.851ZM334.507 154.505V376.958L307.2 349.652V154.505H334.507ZM13.6533 65.7579H245.76V297.865H13.6533V65.7579ZM61.44 311.518H249.76L283.894 345.651H61.44V311.518ZM102.4 359.298H297.547L324.854 386.185H102.4V359.298ZM206.94 133.542L177.98 104.578C176.7 103.298 174.966 102.577 173.153 102.577C171.341 102.577 169.607 103.298 168.327 104.578L129.707 143.194L91.0865 104.578C88.5265 102.018 83.9936 102.018 81.4336 104.578L52.4732 133.542C49.8074 136.207 49.8074 140.529 52.4732 143.194L91.0933 181.811L52.4732 220.428C49.8074 223.094 49.8074 227.415 52.4732 230.081L81.4336 259.045C82.7136 260.325 84.4476 261.045 86.2601 261.045C88.0725 261.045 89.8065 260.325 91.0865 259.045L129.707 220.428L168.327 259.045C169.607 260.325 171.341 261.045 173.153 261.045C174.966 261.045 176.7 260.325 177.98 259.045L206.94 230.081C209.606 227.415 209.606 223.094 206.94 220.428L168.32 181.811L206.94 143.194C209.606 140.527 209.606 136.207 206.94 133.542ZM153.841 176.985C152.561 178.265 151.84 180.002 151.84 181.811C151.84 183.62 152.561 185.358 153.841 186.638L192.461 225.254L173.155 244.564L134.535 205.947C133.202 204.614 131.454 203.947 129.708 203.947C127.962 203.947 126.215 204.614 124.882 205.947L86.2618 244.564L66.9525 225.254L105.573 186.638C106.853 185.358 107.573 183.62 107.573 181.811C107.573 180.002 106.853 178.265 105.573 176.985L66.9525 138.368L86.2583 119.059L124.879 157.676C127.544 160.341 131.866 160.341 134.531 157.676L173.152 119.059L192.457 138.368L153.841 176.985Z" fill="#222030" fill-opacity="0.24"/>
</svg>
