<svg width="1150" height="264" viewBox="0 0 1150 264" fill="none" xmlns="http://www.w3.org/2000/svg">
<path d="M343 4H460.6V29.8H417.2V144H386.4V29.8H343V4Z" fill="white"/>
<path d="M502.994 145.4C492.727 145.4 483.794 143.267 476.194 139C468.594 134.6 462.66 128.467 458.394 120.6C454.26 112.733 452.194 103.533 452.194 93C452.194 83.2667 454.26 74.6 458.394 67C462.527 59.4 468.327 53.4667 475.794 49.2C483.26 44.8 491.727 42.6 501.194 42.6C511.194 42.6 519.86 44.6667 527.194 48.8C534.527 52.8 540.26 58.5333 544.394 66C548.527 73.4667 550.594 82.1333 550.594 92C550.594 93.6 550.527 95.2667 550.394 97C550.26 98.7333 550.06 100.667 549.794 102.8H483.394C484.06 106.4 485.327 109.533 487.194 112.2C489.06 114.733 491.394 116.733 494.194 118.2C497.127 119.533 500.46 120.2 504.194 120.2C508.327 120.2 512.06 119.333 515.394 117.6C518.727 115.867 521.194 113.4 522.794 110.2L548.994 117.4C544.994 126.333 538.994 133.267 530.994 138.2C522.994 143 513.66 145.4 502.994 145.4ZM518.794 83.8C518.66 80.4667 517.794 77.5333 516.194 75C514.594 72.4667 512.527 70.4667 509.994 69C507.46 67.5333 504.66 66.8667 501.594 67C498.527 67.1333 495.727 67.9333 493.194 69.4C490.794 70.7333 488.727 72.6667 486.994 75.2C485.26 77.6 484.194 80.4667 483.794 83.8H518.794Z" fill="white"/>
<path d="M613.312 145.4C603.579 145.533 594.979 143.467 587.512 139.2C580.046 134.8 574.246 128.8 570.113 121.2C565.979 113.467 563.913 104.467 563.913 94.2C563.913 84.0667 565.979 75.1333 570.113 67.4C574.246 59.5333 580.046 53.4667 587.512 49.2C594.979 44.8 603.579 42.6 613.312 42.6C624.379 42.6 634.046 45.4 642.312 51C650.712 56.4667 656.579 64 659.913 73.6L632.312 80.4C630.979 76.8 628.779 74 625.712 72C622.646 70 619.113 69 615.113 69C611.113 69 607.579 70.0667 604.513 72.2C601.446 74.3333 599.046 77.3333 597.312 81.2C595.713 84.9333 594.913 89.2667 594.913 94.2C594.913 101.667 596.779 107.667 600.513 112.2C604.246 116.733 609.113 119 615.113 119C618.979 119 622.446 118.067 625.513 116.2C628.579 114.2 630.979 111.4 632.712 107.8L660.113 114.8C656.779 124 650.846 131.4 642.312 137C633.912 142.467 624.246 145.267 613.312 145.4Z" fill="white"/>
<path d="M677.883 0H707.083V54.4C710.149 50.9333 713.883 48.1333 718.283 46C722.816 43.7333 727.949 42.6 733.683 42.6C741.283 42.6 747.883 44.2667 753.483 47.6C759.083 50.9333 763.416 55.8 766.483 62.2C769.549 68.6 771.083 76.4 771.083 85.6V144H740.283V89.2C740.283 82.5333 738.883 77.4667 736.083 74C733.416 70.5333 729.349 68.8 723.883 68.8C718.283 68.8 714.083 70.8 711.283 74.8C708.483 78.8 707.083 84.2 707.083 91V144H677.883V0Z" fill="white"/>
<path d="M787.141 74C787.141 63.6 788.874 54.0667 792.341 45.4C795.941 36.6 800.874 29 807.141 22.6C813.407 16.2 820.874 11.2667 829.541 7.79999C838.207 4.33333 847.607 2.6 857.741 2.6C872.807 2.6 885.941 6.26667 897.141 13.6C908.341 20.9333 916.474 31.2 921.541 44.4L895.141 51C892.607 45.6667 889.407 41.4 885.541 38.2C881.674 34.8667 877.407 32.4667 872.741 31C868.074 29.4 863.141 28.6 857.941 28.6C849.941 28.6 842.941 30.6 836.941 34.6C830.941 38.4667 826.274 43.8 822.941 50.6C819.741 57.4 818.141 65.2 818.141 74C818.141 82.9333 819.741 90.8 822.941 97.6C826.274 104.4 830.941 109.733 836.941 113.6C842.941 117.467 849.941 119.4 857.941 119.4C863.274 119.4 868.341 118.6 873.141 117C878.074 115.4 882.541 112.733 886.541 109C890.674 105.267 894.141 100.267 896.941 94L922.941 100C917.607 114.8 909.274 126.067 897.941 133.8C886.607 141.533 873.207 145.4 857.741 145.4C847.607 145.4 838.207 143.667 829.541 140.2C820.874 136.733 813.407 131.867 807.141 125.6C800.874 119.2 795.941 111.667 792.341 103C788.874 94.2 787.141 84.5333 787.141 74Z" fill="white"/>
<path d="M988.541 145.4C978.807 145.4 970.074 143.333 962.341 139.2C954.607 135.067 948.541 129.133 944.141 121.4C939.874 113.667 937.741 104.533 937.741 94C937.741 83.4667 939.941 74.4 944.341 66.8C948.874 59.0667 955.007 53.1333 962.741 49C970.607 44.7333 979.341 42.6 988.941 42.6C998.807 42.6 1007.61 44.7333 1015.34 49C1023.21 53.1333 1029.41 59.0667 1033.94 66.8C1038.47 74.4 1040.74 83.4 1040.74 93.8C1040.74 104.467 1038.41 113.667 1033.74 121.4C1029.21 129.133 1022.94 135.067 1014.94 139.2C1007.07 143.333 998.274 145.4 988.541 145.4ZM988.541 119C992.007 119 995.341 118.067 998.541 116.2C1001.74 114.333 1004.34 111.6 1006.34 108C1008.34 104.267 1009.34 99.6 1009.34 94C1009.34 88.4 1008.34 83.8 1006.34 80.2C1004.34 76.4667 1001.81 73.6667 998.741 71.8C995.674 69.9333 992.407 69 988.941 69C985.207 69 981.874 69.9333 978.941 71.8C976.007 73.6667 973.607 76.4667 971.741 80.2C970.007 83.8 969.141 88.4 969.141 94C969.141 99.6 970.007 104.267 971.741 108C973.474 111.6 975.807 114.333 978.741 116.2C981.674 118.067 984.941 119 988.541 119Z" fill="white"/>
<path d="M1058.35 44H1084.75L1086.75 54.8C1090.08 51.2 1094.02 48.2667 1098.55 46C1103.08 43.7333 1108.02 42.6 1113.35 42.6C1121.22 42.6 1127.82 44.2667 1133.15 47.6C1138.62 50.9333 1142.75 55.8 1145.55 62.2C1148.48 68.6 1149.95 76.4 1149.95 85.6V144H1120.75V89.2C1120.75 82.5333 1119.35 77.4667 1116.55 74C1113.88 70.5333 1109.82 68.8 1104.35 68.8C1098.75 68.8 1094.55 70.6 1091.75 74.2C1088.95 77.6667 1087.55 82.7333 1087.55 89.4V144H1058.35V44Z" fill="white"/>
<path d="M241.352 132H132L126.844 180.763L132 241.353C162.197 271.549 211.156 271.549 241.352 241.353C271.549 211.155 271.549 162.196 241.352 132Z" fill="#FBE159"/>
<path d="M132 132C162.196 162.196 211.156 162.196 241.352 132C271.549 101.803 271.549 52.844 241.352 22.6474C211.155 -7.54914 162.196 -7.54914 132 22.6474V132Z" fill="#72F0E1"/>
<path d="M132 22.6474L126.844 77.3238L132 132C162.196 101.803 162.196 52.8445 132 22.6474Z" fill="#A7C047"/>
<path d="M132 22.6474C101.803 -7.54914 52.844 -7.54914 22.6474 22.6474C-7.54915 52.8445 -7.54915 101.803 22.6474 132H132V22.6474Z" fill="#E2FF74"/>
<path d="M132 132C101.803 101.803 52.844 101.803 22.6474 132C-7.54915 162.196 -7.54915 211.155 22.6474 241.352C52.8446 271.549 101.803 271.549 132 241.352L126.844 186.676L132 132Z" fill="#FF1392"/>
<path d="M132 132C101.803 162.196 101.803 211.155 132 241.352V132Z" fill="#FFEE99"/>
<path d="M398.151 225.521V263.479H393.191V225.521H398.151ZM410.368 225.521V229.64H381V225.521H410.368Z" fill="white" fill-opacity="0.6"/>
<path d="M449.242 259.386V263.479H429.116V259.386H449.242ZM430.134 225.521V263.479H425.095V225.521H430.134ZM446.58 241.841V245.934H429.116V241.841H446.58ZM448.981 225.521V229.64H429.116V225.521H448.981Z" fill="white" fill-opacity="0.6"/>
<path d="M487.516 251.408H492.529C492.268 253.807 491.58 255.953 490.466 257.848C489.353 259.742 487.778 261.245 485.741 262.358C483.705 263.453 481.164 264 478.119 264C475.891 264 473.864 263.583 472.036 262.749C470.226 261.914 468.669 260.733 467.363 259.203C466.058 257.656 465.049 255.805 464.335 253.65C463.639 251.478 463.291 249.062 463.291 246.403V242.623C463.291 239.964 463.639 237.557 464.335 235.402C465.049 233.229 466.067 231.37 467.39 229.823C468.73 228.276 470.339 227.086 472.219 226.251C474.099 225.417 476.213 225 478.562 225C481.434 225 483.862 225.539 485.846 226.616C487.83 227.694 489.37 229.189 490.466 231.1C491.58 232.995 492.268 235.193 492.529 237.696H487.516C487.273 235.923 486.82 234.402 486.159 233.134C485.498 231.848 484.558 230.857 483.34 230.162C482.121 229.467 480.529 229.119 478.562 229.119C476.874 229.119 475.386 229.441 474.099 230.084C472.828 230.727 471.758 231.639 470.888 232.821C470.035 234.003 469.391 235.419 468.956 237.07C468.521 238.721 468.303 240.555 468.303 242.571V246.403C468.303 248.263 468.495 250.009 468.878 251.643C469.278 253.277 469.878 254.711 470.679 255.945C471.479 257.178 472.497 258.152 473.733 258.864C474.969 259.559 476.431 259.907 478.119 259.907C480.259 259.907 481.965 259.568 483.235 258.89C484.506 258.213 485.463 257.239 486.107 255.971C486.768 254.702 487.238 253.181 487.516 251.408Z" fill="white" fill-opacity="0.6"/>
<path d="M533.309 241.841V245.934H512.738V241.841H533.309ZM513.521 225.521V263.479H508.483V225.521H513.521ZM537.694 225.521V263.479H532.682V225.521H537.694Z" fill="white" fill-opacity="0.6"/>
<path d="M584.975 225.521V263.479H579.91L560.775 234.203V263.479H555.737V225.521H560.775L579.988 254.876V225.521H584.975Z" fill="white" fill-opacity="0.6"/>
<path d="M632.255 243.301V245.699C632.255 248.549 631.898 251.104 631.184 253.364C630.471 255.623 629.444 257.543 628.104 259.125C626.764 260.707 625.154 261.914 623.275 262.749C621.412 263.583 619.324 264 617.009 264C614.764 264 612.702 263.583 610.823 262.749C608.96 261.914 607.342 260.707 605.967 259.125C604.61 257.543 603.557 255.623 602.808 253.364C602.06 251.104 601.686 248.549 601.686 245.699V243.301C601.686 240.451 602.051 237.904 602.782 235.662C603.531 233.403 604.583 231.483 605.941 229.901C607.298 228.302 608.908 227.086 610.77 226.251C612.65 225.417 614.712 225 616.957 225C619.272 225 621.36 225.417 623.222 226.251C625.102 227.086 626.712 228.302 628.052 229.901C629.409 231.483 630.445 233.403 631.158 235.662C631.889 237.904 632.255 240.451 632.255 243.301ZM627.269 245.699V243.249C627.269 240.989 627.034 238.991 626.564 237.253C626.111 235.515 625.441 234.055 624.554 232.873C623.666 231.691 622.578 230.796 621.291 230.188C620.02 229.58 618.576 229.275 616.957 229.275C615.391 229.275 613.973 229.58 612.702 230.188C611.449 230.796 610.37 231.691 609.465 232.873C608.578 234.055 607.89 235.515 607.403 237.253C606.916 238.991 606.672 240.989 606.672 243.249V245.699C606.672 247.976 606.916 249.992 607.403 251.747C607.89 253.485 608.586 254.954 609.491 256.153C610.414 257.335 611.501 258.23 612.754 258.838C614.025 259.447 615.443 259.751 617.009 259.751C618.645 259.751 620.099 259.447 621.369 258.838C622.639 258.23 623.71 257.335 624.58 256.153C625.467 254.954 626.137 253.485 626.59 251.747C627.042 249.992 627.269 247.976 627.269 245.699Z" fill="white" fill-opacity="0.6"/>
<path d="M671.938 259.386V263.479H652.934V259.386H671.938ZM653.926 225.521V263.479H648.888V225.521H653.926Z" fill="white" fill-opacity="0.6"/>
<path d="M714.337 243.301V245.699C714.337 248.549 713.98 251.104 713.267 253.364C712.553 255.623 711.526 257.543 710.186 259.125C708.846 260.707 707.236 261.914 705.357 262.749C703.495 263.583 701.406 264 699.092 264C696.847 264 694.784 263.583 692.905 262.749C691.043 261.914 689.424 260.707 688.049 259.125C686.692 257.543 685.639 255.623 684.891 253.364C684.142 251.104 683.768 248.549 683.768 245.699V243.301C683.768 240.451 684.134 237.904 684.864 235.662C685.613 233.403 686.666 231.483 688.023 229.901C689.381 228.302 690.99 227.086 692.853 226.251C694.732 225.417 696.794 225 699.039 225C701.354 225 703.442 225.417 705.305 226.251C707.184 227.086 708.794 228.302 710.134 229.901C711.492 231.483 712.527 233.403 713.241 235.662C713.971 237.904 714.337 240.451 714.337 243.301ZM709.351 245.699V243.249C709.351 240.989 709.116 238.991 708.646 237.253C708.194 235.515 707.524 234.055 706.636 232.873C705.748 231.691 704.661 230.796 703.373 230.188C702.102 229.58 700.658 229.275 699.039 229.275C697.473 229.275 696.055 229.58 694.784 230.188C693.531 230.796 692.452 231.691 691.547 232.873C690.66 234.055 689.972 235.515 689.485 237.253C688.998 238.991 688.754 240.989 688.754 243.249V245.699C688.754 247.976 688.998 249.992 689.485 251.747C689.972 253.485 690.668 254.954 691.573 256.153C692.496 257.335 693.584 258.23 694.837 258.838C696.107 259.447 697.525 259.751 699.092 259.751C700.728 259.751 702.181 259.447 703.451 258.838C704.722 258.23 705.792 257.335 706.662 256.153C707.55 254.954 708.22 253.485 708.672 251.747C709.125 249.992 709.351 247.976 709.351 245.699Z" fill="white" fill-opacity="0.6"/>
<path d="M759.059 244.578V258.473C758.589 259.168 757.841 259.951 756.814 260.82C755.787 261.671 754.369 262.418 752.559 263.061C750.766 263.687 748.452 264 745.615 264C743.3 264 741.168 263.6 739.219 262.801C737.287 261.984 735.608 260.802 734.181 259.255C732.771 257.691 731.675 255.797 730.892 253.572C730.126 251.33 729.743 248.793 729.743 245.96V243.014C729.743 240.181 730.074 237.652 730.735 235.428C731.414 233.203 732.406 231.318 733.711 229.771C735.016 228.207 736.617 227.025 738.514 226.225C740.411 225.408 742.587 225 745.041 225C747.947 225 750.375 225.504 752.324 226.512C754.29 227.503 755.822 228.876 756.918 230.631C758.032 232.386 758.746 234.385 759.059 236.627H754.021C753.794 235.254 753.342 234.003 752.663 232.873C752.002 231.743 751.053 230.84 749.818 230.162C748.582 229.467 746.99 229.119 745.041 229.119C743.283 229.119 741.76 229.441 740.472 230.084C739.184 230.727 738.123 231.648 737.287 232.847C736.452 234.046 735.825 235.497 735.408 237.201C735.008 238.904 734.807 240.824 734.807 242.962V245.96C734.807 248.15 735.06 250.105 735.564 251.826C736.087 253.546 736.826 255.015 737.783 256.231C738.741 257.43 739.88 258.343 741.203 258.969C742.543 259.594 744.022 259.907 745.641 259.907C747.433 259.907 748.887 259.759 750 259.464C751.114 259.151 751.984 258.786 752.611 258.369C753.237 257.934 753.716 257.526 754.047 257.144V248.645H745.249V244.578H759.059Z" fill="white" fill-opacity="0.6"/>
<path d="M778.25 225.521L788.118 244.578L798.012 225.521H803.729L790.624 249.297V263.479H785.586V249.297L772.481 225.521H778.25Z" fill="white" fill-opacity="0.6"/>
<path d="M868.69 242.414L874.381 238.374C875.477 237.626 876.322 236.879 876.913 236.132C877.522 235.367 877.827 234.324 877.827 233.003C877.827 231.978 877.427 231.048 876.626 230.214C875.826 229.362 874.694 228.936 873.232 228.936C872.223 228.936 871.37 229.171 870.674 229.64C869.978 230.11 869.456 230.735 869.108 231.517C868.76 232.282 868.586 233.125 868.586 234.046C868.586 234.828 868.777 235.636 869.16 236.471C869.543 237.305 870.074 238.174 870.752 239.078C871.431 239.981 872.206 240.937 873.076 241.945L891.062 263.479H885.267L870.518 245.856C869.212 244.326 868.046 242.927 867.019 241.658C865.993 240.372 865.183 239.13 864.592 237.93C864.017 236.731 863.73 235.489 863.73 234.203C863.73 232.221 864.122 230.553 864.905 229.197C865.706 227.824 866.819 226.781 868.246 226.069C869.673 225.356 871.344 225 873.259 225C875.121 225 876.722 225.374 878.062 226.121C879.419 226.851 880.464 227.824 881.194 229.041C881.925 230.24 882.291 231.561 882.291 233.003C882.291 234.22 882.073 235.315 881.638 236.288C881.203 237.244 880.594 238.122 879.811 238.921C879.045 239.721 878.149 240.503 877.122 241.267L869.578 246.872C868.325 247.793 867.411 248.671 866.837 249.505C866.262 250.34 865.888 251.078 865.714 251.721C865.558 252.364 865.479 252.877 865.479 253.259C865.479 254.493 865.749 255.623 866.289 256.648C866.828 257.674 867.646 258.499 868.742 259.125C869.856 259.733 871.248 260.037 872.919 260.037C874.381 260.037 875.799 259.707 877.174 259.047C878.567 258.369 879.811 257.413 880.907 256.179C882.004 254.928 882.874 253.442 883.518 251.721C884.179 249.983 884.51 248.063 884.51 245.96H888.843C888.843 247.68 888.678 249.305 888.347 250.835C888.017 252.364 887.503 253.789 886.807 255.11C886.128 256.414 885.258 257.604 884.197 258.682C884.04 258.838 883.918 259.021 883.831 259.229C883.744 259.438 883.622 259.62 883.466 259.777C882.16 261.184 880.551 262.245 878.636 262.957C876.739 263.652 874.834 264 872.919 264C870.396 264 868.212 263.539 866.367 262.618C864.54 261.697 863.13 260.428 862.138 258.812C861.146 257.196 860.65 255.345 860.65 253.259C860.65 251.66 860.989 250.253 861.668 249.036C862.364 247.82 863.313 246.681 864.513 245.621C865.732 244.561 867.124 243.492 868.69 242.414Z" fill="white" fill-opacity="0.6"/>
<path d="M937.381 263.479H929.445L929.497 259.386H937.381C940.095 259.386 942.358 258.821 944.168 257.691C945.978 256.544 947.335 254.945 948.24 252.894C949.163 250.826 949.624 248.41 949.624 245.647V243.327C949.624 241.154 949.363 239.225 948.841 237.539C948.319 235.836 947.553 234.402 946.543 233.238C945.534 232.056 944.298 231.161 942.837 230.553C941.392 229.945 939.73 229.64 937.85 229.64H929.288V225.521H937.85C940.339 225.521 942.61 225.939 944.664 226.773C946.717 227.59 948.484 228.78 949.963 230.344C951.46 231.891 952.608 233.768 953.409 235.975C954.21 238.165 954.61 240.633 954.61 243.379V245.647C954.61 248.393 954.21 250.87 953.409 253.077C952.608 255.267 951.451 257.135 949.937 258.682C948.44 260.229 946.63 261.419 944.507 262.253C942.401 263.07 940.026 263.479 937.381 263.479ZM932.133 225.521V263.479H927.095V225.521H932.133Z" fill="white" fill-opacity="0.6"/>
<path d="M995.416 259.386V263.479H975.289V259.386H995.416ZM976.307 225.521V263.479H971.269V225.521H976.307ZM992.753 241.841V245.934H975.289V241.841H992.753ZM995.155 225.521V229.64H975.289V225.521H995.155Z" fill="white" fill-opacity="0.6"/>
<path d="M1031 253.885C1031 252.999 1030.86 252.217 1030.58 251.539C1030.32 250.844 1029.85 250.218 1029.17 249.662C1028.51 249.106 1027.59 248.576 1026.41 248.072C1025.24 247.568 1023.76 247.055 1021.97 246.533C1020.09 245.977 1018.39 245.36 1016.88 244.682C1015.36 243.987 1014.07 243.197 1012.99 242.31C1011.91 241.424 1011.08 240.407 1010.51 239.26C1009.93 238.113 1009.65 236.801 1009.65 235.324C1009.65 233.846 1009.95 232.482 1010.56 231.231C1011.17 229.979 1012.04 228.893 1013.17 227.972C1014.32 227.033 1015.69 226.303 1017.27 225.782C1018.85 225.261 1020.62 225 1022.57 225C1025.42 225 1027.84 225.547 1029.83 226.642C1031.83 227.72 1033.35 229.136 1034.39 230.892C1035.44 232.63 1035.96 234.489 1035.96 236.471H1030.95C1030.95 235.045 1030.64 233.785 1030.04 232.691C1029.43 231.578 1028.5 230.709 1027.27 230.084C1026.03 229.441 1024.47 229.119 1022.57 229.119C1020.78 229.119 1019.3 229.388 1018.13 229.927C1016.97 230.466 1016.1 231.196 1015.52 232.117C1014.96 233.038 1014.69 234.09 1014.69 235.271C1014.69 236.071 1014.85 236.801 1015.18 237.461C1015.53 238.104 1016.06 238.704 1016.77 239.26C1017.5 239.816 1018.43 240.329 1019.54 240.798C1020.67 241.267 1022.02 241.719 1023.59 242.154C1025.75 242.762 1027.61 243.44 1029.17 244.187C1030.74 244.934 1032.03 245.777 1033.04 246.716C1034.06 247.637 1034.82 248.689 1035.31 249.87C1035.81 251.035 1036.07 252.356 1036.07 253.833C1036.07 255.38 1035.75 256.779 1035.13 258.03C1034.5 259.281 1033.6 260.35 1032.44 261.237C1031.27 262.123 1029.87 262.809 1028.23 263.296C1026.62 263.765 1024.81 264 1022.8 264C1021.05 264 1019.31 263.757 1017.61 263.27C1015.92 262.783 1014.38 262.053 1012.99 261.08C1011.61 260.107 1010.51 258.908 1009.67 257.483C1008.86 256.04 1008.45 254.372 1008.45 252.477H1013.46C1013.46 253.781 1013.71 254.902 1014.22 255.84C1014.72 256.761 1015.41 257.526 1016.28 258.134C1017.17 258.743 1018.17 259.195 1019.28 259.49C1020.41 259.768 1021.59 259.907 1022.8 259.907C1024.56 259.907 1026.05 259.664 1027.27 259.177C1028.49 258.691 1029.41 257.995 1030.04 257.092C1030.68 256.188 1031 255.119 1031 253.885Z" fill="white" fill-opacity="0.6"/>
<path d="M1056.98 225.521V263.479H1051.94V225.521H1056.98Z" fill="white" fill-opacity="0.6"/>
<path d="M1103.32 244.578V258.473C1102.85 259.168 1102.1 259.951 1101.08 260.82C1100.05 261.671 1098.63 262.418 1096.82 263.061C1095.03 263.687 1092.71 264 1089.88 264C1087.56 264 1085.43 263.6 1083.48 262.801C1081.55 261.984 1079.87 260.802 1078.44 259.255C1077.03 257.691 1075.94 255.797 1075.15 253.572C1074.39 251.33 1074 248.793 1074 245.96V243.014C1074 240.181 1074.34 237.652 1075 235.428C1075.68 233.203 1076.67 231.318 1077.97 229.771C1079.28 228.207 1080.88 227.025 1082.78 226.225C1084.67 225.408 1086.85 225 1089.3 225C1092.21 225 1094.64 225.504 1096.59 226.512C1098.55 227.503 1100.08 228.876 1101.18 230.631C1102.29 232.386 1103.01 234.385 1103.32 236.627H1098.28C1098.06 235.254 1097.6 234.003 1096.92 232.873C1096.26 231.743 1095.31 230.84 1094.08 230.162C1092.84 229.467 1091.25 229.119 1089.3 229.119C1087.54 229.119 1086.02 229.441 1084.73 230.084C1083.45 230.727 1082.38 231.648 1081.55 232.847C1080.71 234.046 1080.09 235.497 1079.67 237.201C1079.27 238.904 1079.07 240.824 1079.07 242.962V245.96C1079.07 248.15 1079.32 250.105 1079.83 251.826C1080.35 253.546 1081.09 255.015 1082.04 256.231C1083 257.43 1084.14 258.343 1085.46 258.969C1086.8 259.594 1088.28 259.907 1089.9 259.907C1091.69 259.907 1093.15 259.759 1094.26 259.464C1095.38 259.151 1096.25 258.786 1096.87 258.369C1097.5 257.934 1097.98 257.526 1098.31 257.144V248.645H1089.51V244.578H1103.32Z" fill="white" fill-opacity="0.6"/>
<path d="M1150 225.521V263.479H1144.94L1125.8 234.203V263.479H1120.76V225.521H1125.8L1145.01 254.876V225.521H1150Z" fill="white" fill-opacity="0.6"/>
</svg>
